<?xml version="1.0" encoding="UTF-8" standalone="no"?>
<!DOCTYPE svg PUBLIC "-//W3C//DTD SVG 1.1//EN" "http://www.w3.org/Graphics/SVG/1.1/DTD/svg11.dtd">
<svg width="100%" height="100%" viewBox="0 0 300 45" version="1.1" xmlns="http://www.w3.org/2000/svg" xmlns:xlink="http://www.w3.org/1999/xlink" xml:space="preserve" xmlns:serif="http://www.serif.com/" style="fill-rule:evenodd;clip-rule:evenodd;stroke-linejoin:round;stroke-miterlimit:2;">
    <g transform="matrix(1,0,0,1,-100.54,-73.8992)">
        <g transform="matrix(1,0,0,1,-32.174,-44.8867)">
            <g transform="matrix(26,0,0,26,132.084,139.415)">
                <path d="M0.345,-0L0.345,-0.594L0.574,-0.594L0.574,-0.668L0.032,-0.668L0.032,-0.594L0.261,-0.594L0.261,-0L0.345,-0Z" style="fill:rgb(52,40,78);fill-rule:nonzero;"/>
            </g>
            <g transform="matrix(26,0,0,26,148.23,139.415)">
                <path d="M0.177,-0L0.177,-0.301L0.527,-0.301L0.527,-0L0.611,-0L0.611,-0.668L0.527,-0.668L0.527,-0.374L0.177,-0.374L0.177,-0.668L0.093,-0.668L0.093,-0L0.177,-0Z" style="fill:rgb(52,40,78);fill-rule:nonzero;"/>
            </g>
            <g transform="matrix(26,0,0,26,166.924,139.415)">
                <path d="M0.513,-0.074L0.175,-0.074L0.175,-0.303L0.476,-0.303L0.476,-0.377L0.175,-0.377L0.175,-0.594L0.513,-0.594L0.513,-0.668L0.093,-0.668L0.093,-0L0.513,-0L0.513,-0.074Z" style="fill:rgb(52,40,78);fill-rule:nonzero;"/>
            </g>
        </g>
        <g transform="matrix(1,0,0,1,-35.8388,-58.5615)">
            <g transform="matrix(64,0,0,64,193.487,175.981)">
                <path d="M0.287,0.012C0.43,0.012 0.556,-0.06 0.556,-0.199C0.556,-0.458 0.203,-0.365 0.203,-0.483C0.203,-0.523 0.238,-0.552 0.294,-0.552C0.347,-0.552 0.393,-0.524 0.402,-0.47L0.551,-0.511C0.525,-0.624 0.433,-0.68 0.293,-0.68C0.153,-0.68 0.034,-0.601 0.034,-0.467C0.034,-0.214 0.387,-0.305 0.387,-0.187C0.387,-0.14 0.342,-0.117 0.288,-0.117C0.223,-0.117 0.165,-0.152 0.153,-0.216L0.009,-0.156C0.039,-0.051 0.142,0.012 0.287,0.012Z" style="fill:rgb(52,40,78);fill-rule:nonzero;"/>
            </g>
            <g transform="matrix(64,0,0,64,231.887,175.981)">
                <path d="M0.343,-0.209C0.495,-0.209 0.599,-0.293 0.599,-0.438C0.599,-0.585 0.504,-0.668 0.343,-0.668L0.066,-0.668L0.066,-0L0.234,-0L0.234,-0.209L0.343,-0.209ZM0.426,-0.437C0.426,-0.374 0.394,-0.34 0.323,-0.34L0.234,-0.34L0.234,-0.535L0.323,-0.535C0.395,-0.535 0.426,-0.498 0.426,-0.437Z" style="fill:rgb(52,40,78);fill-rule:nonzero;"/>
            </g>
            <g transform="matrix(64,0,0,64,272.527,175.981)">
                <rect x="0.066" y="-0.668" width="0.168" height="0.668" style="fill:rgb(52,40,78);fill-rule:nonzero;"/>
            </g>
            <g transform="matrix(64,0,0,64,292.687,175.981)">
                <path d="M0.031,-0.334C0.031,-0.118 0.156,0.012 0.347,0.012C0.482,0.012 0.578,-0.055 0.613,-0.166L0.462,-0.233C0.449,-0.172 0.411,-0.129 0.346,-0.129C0.262,-0.129 0.205,-0.199 0.205,-0.334C0.205,-0.469 0.262,-0.539 0.346,-0.539C0.411,-0.539 0.449,-0.497 0.462,-0.436L0.613,-0.503C0.578,-0.613 0.482,-0.68 0.347,-0.68C0.156,-0.68 0.031,-0.55 0.031,-0.334Z" style="fill:rgb(52,40,78);fill-rule:nonzero;"/>
            </g>
            <g transform="matrix(64,0,0,64,332.751,175.981)">
                <path d="M0.332,-0.412L0.195,-0.668L0.012,-0.668L0.245,-0.248L0.245,-0L0.413,-0L0.413,-0.248L0.645,-0.668L0.47,-0.668L0.334,-0.412L0.332,-0.412Z" style="fill:rgb(52,40,78);fill-rule:nonzero;"/>
            </g>
        </g>
        <g transform="matrix(1,0,0,1,-37.7332,-47.1076)">
            <g transform="matrix(31,0,0,31,375.141,164.111)">
                <path d="M0.391,-0.668L0.255,-0.107L0.252,-0.107L0.115,-0.668L0.03,-0.668L0.204,-0L0.293,-0L0.433,-0.553L0.436,-0.553L0.576,-0L0.665,-0L0.839,-0.668L0.756,-0.668L0.62,-0.107L0.616,-0.107L0.48,-0.668L0.391,-0.668Z" style="fill:rgb(52,40,78);fill-rule:nonzero;"/>
            </g>
            <g transform="matrix(31,0,0,31,402.545,164.111)">
                <path d="M0.513,-0.074L0.175,-0.074L0.175,-0.303L0.476,-0.303L0.476,-0.377L0.175,-0.377L0.175,-0.594L0.513,-0.594L0.513,-0.668L0.093,-0.668L0.093,-0L0.513,-0L0.513,-0.074Z" style="fill:rgb(52,40,78);fill-rule:nonzero;"/>
            </g>
            <g transform="matrix(31,0,0,31,420.897,164.111)">
                <path d="M0.412,-0.34C0.483,-0.352 0.537,-0.408 0.537,-0.493C0.537,-0.609 0.457,-0.668 0.324,-0.668L0.093,-0.668L0.093,-0L0.332,-0C0.485,-0 0.557,-0.073 0.557,-0.185C0.557,-0.279 0.498,-0.328 0.412,-0.338L0.412,-0.34ZM0.176,-0.597L0.318,-0.597C0.401,-0.597 0.45,-0.56 0.45,-0.482C0.45,-0.405 0.401,-0.368 0.318,-0.368L0.176,-0.368L0.176,-0.597ZM0.176,-0.299L0.329,-0.299C0.423,-0.299 0.473,-0.259 0.473,-0.184C0.473,-0.11 0.423,-0.069 0.329,-0.069L0.176,-0.069L0.176,-0.299Z" style="fill:rgb(52,40,78);fill-rule:nonzero;"/>
            </g>
        </g>
        <g transform="matrix(-0.885884,-1.0849e-16,1.0849e-16,-0.885884,268.023,291.86)">
            <rect x="134.898" y="198.377" width="15.383" height="15.383" style="fill:rgb(255,165,7);"/>
        </g>
        <g transform="matrix(0.885707,0,0,0.885707,231.953,-100.947)">
            <rect x="134.898" y="198.377" width="15.383" height="15.383" style="fill:rgb(255,165,7);"/>
        </g>
        <g transform="matrix(-0.885884,-1.0849e-16,1.0849e-16,-0.885884,250.862,291.86)">
            <rect x="134.898" y="198.377" width="15.383" height="15.383" style="fill:rgb(218,39,12);"/>
        </g>
        <g transform="matrix(0.885707,0,0,0.885707,249.11,-100.947)">
            <rect x="134.898" y="198.377" width="15.383" height="15.383" style="fill:rgb(218,39,12);"/>
        </g>
        <g transform="matrix(-0.885884,-1.0849e-16,1.0849e-16,-0.885884,233.671,291.86)">
            <rect x="134.898" y="198.377" width="15.383" height="15.383" style="fill:rgb(120,23,112);"/>
        </g>
        <g transform="matrix(0.885707,0,0,0.885707,266.297,-100.947)">
            <rect x="134.898" y="198.377" width="15.383" height="15.383" style="fill:rgb(120,23,112);"/>
        </g>
    </g>
</svg>
